HIERARCHY
ROOT pelvis
{
  OFFSET 0 100 0
  CHANNELS 6 Xposition Yposition Zposition Zrotation Xrotation Yrotation
  JOINT pelvis_right_femur
  {
    OFFSET -10.78128 -3.44521 -0.5502486
    CHANNELS 3 Zrotation Xrotation Yrotation
    JOINT right_femur_tibia
    {
      OFFSET -0.8047443 -44.0398 -0.1307829
      CHANNELS 3 Zrotation Xrotation Yrotation
      JOINT right_tibia_foot
      {
        OFFSET 3.006224 -47.83518 -5
        CHANNELS 3 Zrotation Xrotation Yrotation
        End Site
        {
          OFFSET 0 -5 15
        }
      }
    }
  }
  JOINT pelvis_left_femur
  {
    OFFSET 10.78128 -3.44521 -0.5502486
    CHANNELS 3 Zrotation Xrotation Yrotation
    JOINT left_femur_tibia
    {
      OFFSET 0.8047443 -44.0398 -0.1307829
      CHANNELS 3 Zrotation Xrotation Yrotation
      JOINT left_tibia_foot
      {
        OFFSET -4.370144 -48.10324 -4.275266
        CHANNELS 3 Zrotation Xrotation Yrotation
        End Site
        {
          OFFSET 0 -5 15
        }
      }
    }
  }
  JOINT pelvis_spine1
  {
    OFFSET 0 6.468898 -3.129235
    CHANNELS 3 Zrotation Xrotation Yrotation
    JOINT spine1
    {
      OFFSET 0 23.15396 4.99043
      CHANNELS 3 Zrotation Xrotation Yrotation
      JOINT spine2
      {
        OFFSET 0 20.79997 -5.064912
        CHANNELS 3 Zrotation Xrotation Yrotation
        JOINT neck
        {
          OFFSET 0 14.38658 9.616178
          CHANNELS 3 Zrotation Xrotation Yrotation
          End Site
          {
            OFFSET 0 20 0
          }
        }
      }
      JOINT right_manubrium
      {
        OFFSET -5.722621 16.35077 3.967754
        CHANNELS 3 Zrotation Xrotation Yrotation
        JOINT right_clavicle
        {
          OFFSET -13.16364 1.694482 -4.693211
          CHANNELS 3 Zrotation Xrotation Yrotation
          JOINT right_humerus
          {
            OFFSET -28.5034 -0.3100689 -2.792744
            CHANNELS 3 Zrotation Xrotation Yrotation
            JOINT right_radius
            {
              OFFSET -25.15693 0.02248979 -1.271978
              CHANNELS 3 Zrotation Xrotation Yrotation
              End Site
              {
                OFFSET -15 0 0
              }
            }
          }
        }
      }
      JOINT left_manubrium
      {
        OFFSET 5.722621 16.35077 3.967754
        CHANNELS 3 Zrotation Xrotation Yrotation
        JOINT left_clavicle
        {
          OFFSET 13.16364 1.694482 -4.693211
          CHANNELS 3 Zrotation Xrotation Yrotation
          JOINT left_humerus
          {
            OFFSET 29.39168 -1.063119 -2.237045
            CHANNELS 3 Zrotation Xrotation Yrotation
            JOINT left_radius
            {
              OFFSET 24.59957 -0.9528479 0.9047498
              CHANNELS 3 Zrotation Xrotation Yrotation
              End Site
              {
                OFFSET 15 -0 -0
              }
            }
          }
        }
      }
    }
  }
}
MOTION
Frames: 11
Frame Time: 0.0416666666667
0 103.5113 0 -0.7426408 0.06487723 0.0791379 5.568843 -17.96033 9.294405 -0 37.64679 -0 -6.259183 -13.99009 -2.619469 -5.86413 10.22502 -21.88907 -0 3.413375 -0 6.143215 -18.09559 26.02547 -1.86583 -4.236508 4.518898 2.312725 9.80838 -8.01057 1.302656 21.24063 7.073009 2.891981 -25.98841 10.15596 4.646041 -20.77575 11.08309 86.51332 32.18956 -19.17464 -0 0 18.12037 -7.913974 7.94745 3.779027 7.86948 -20.54553 0.4831252 -95.495 22.94099 23.39195 0 0 -11.65138 12.09541 17.77295 -0.1205839
0.3063549 102.9827 2.104938 -1.023317 0.5537132 0.1875431 6.009009 -19.58426 9.064046 -0 35.91498 -0 -6.376256 -13.09624 -2.357406 -5.6685 10.45199 -21.47458 -0 3.925168 -0 5.701184 -18.54947 25.31068 -1.709126 -3.983915 4.412803 2.470022 9.737766 -8.082309 1.294221 20.9621 7.195604 3.00325 -26.44233 10.24441 4.59729 -20.62799 11.10623 86.5647 32.12704 -19.35901 -0 0 17.87926 -7.990491 8.023263 3.867057 8.010309 -20.70035 0.5574798 -95.30995 22.60418 23.15018 0 0 -11.93967 12.35721 17.40768 -0.4541213
0.5992959 102.2321 4.260863 -0.5909903 0.6138835 0.3001047 5.249818 -21.41436 7.723613 -0 32.41129 -0 -6.423103 -12.2296 -2.376098 -5.861028 10.98485 -20.96206 -0 4.602395 -0 5.44582 -20.18964 24.07307 -2.471116 -3.638916 4.244007 2.761724 9.380142 -8.127825 1.341301 21.21095 6.926744 3.069678 -26.03733 9.720042 5.100211 -19.92758 11.20725 85.96824 31.98569 -19.65219 -0 0 16.75592 -8.716552 8.394386 4.442319 7.617423 -20.78157 -0.1565514 -94.90628 24.12589 22.49147 0 0 -13.18497 10.21179 18.39943 1.99229
0.8951508 101.3856 6.478906 -0.3838265 0.7878651 0.4178693 4.958914 -22.59771 7.187622 -0 30.28124 -0 -6.35299 -11.70454 -2.409065 -5.970976 11.2698 -20.63929 -0 5.098605 -0 5.514238 -20.8804 23.48399 -2.866457 -3.428092 4.195624 2.957673 9.233343 -8.199815 1.35966 21.23733 6.799791 3.104206 -25.92416 9.473343 5.382038 -19.59335 11.28237 85.72749 32.23394 -19.86937 -0 0 16.16293 -9.004251 8.603303 4.764451 7.361078 -20.80679 -0.5270306 -94.51929 24.73296 22.07357 0 0 -14.10623 9.229995 18.55183 3.1147
1.21296 100.4471 8.842128 -0.1882331 1.562026 0.5454547 4.932401 -25.03225 6.965835 -0 26.88088 -0 -6.069993 -10.93569 -2.368131 -6.197185 11.44066 -20.14552 -0 6.063968 -0 6.58389 -21.41003 23.03101 -3.399625 -3.136027 4.312688 3.34157 9.168704 -8.380998 1.417664 20.95537 6.639285 3.155796 -26.12706 9.280932 5.955588 -19.20156 11.43651 85.28901 33.35447 -20.12021 -0 0 15.45437 -8.979376 9.042479 5.131402 7.06877 -20.83028 -0.8404325 -93.67837 24.64656 21.33899 0 0 -15.54637 9.224681 18.02683 3.262401
1.563746 99.42937 11.3605 -0.08859326 2.487258 0.7013925 5.126288 -27.5597 7.034985 -0 23.91158 -0 -5.772081 -10.20219 -2.258857 -6.43219 11.4655 -19.71697 -0 6.959181 -0 7.965614 -21.69029 22.83081 -3.819505 -2.858729 4.499564 3.703264 9.180555 -8.5432 1.49447 20.5508 6.544605 3.214628 -26.51242 9.245686 6.492975 -18.89791 11.56456 84.88155 34.63478 -20.26316 -0 0 14.92882 -8.695909 9.48693 5.360624 6.905194 -20.84766 -0.9709923 -92.83084 24.08117 20.60559 0 0 -16.80951 10.01053 17.12835 2.574036
1.954683 98.36036 14.11528 -0.1485652 3.624895 0.9395174 5.632231 -30.66297 7.271728 -0 21.08394 -0 -5.531437 -9.190361 -2.011845 -6.634624 11.52806 -19.26366 -0 7.890343 -0 9.428463 -21.85516 22.6027 -4.083532 -2.449743 4.665648 4.062093 9.225478 -8.668359 1.574757 20.00046 6.615446 3.345542 -27.15598 9.413327 6.952005 -18.59194 11.66616 84.60106 36.07729 -20.36699 -0 0 14.39387 -8.153175 9.93801 5.488188 6.860505 -20.89032 -0.9906623 -91.8628 23.20793 19.6955 0 0 -18.24482 11.35946 15.60866 1.309826
2.383324 97.25192 17.16786 -0.316796 4.67776 1.306678 6.28363 -33.79218 7.482215 -0 18.81036 -0 -5.393243 -7.996085 -1.688067 -6.788946 11.77765 -18.84431 -0 8.692198 -0 10.54303 -21.88987 22.23978 -4.172412 -1.885208 4.703593 4.343378 9.248202 -8.699749 1.616145 19.48356 6.898571 3.559603 -27.84513 9.732616 7.215854 -18.26948 11.73391 84.62719 37.47347 -20.48696 -0 0 13.72311 -7.501353 10.27713 5.575449 6.839493 -20.92894 -1.058539 -90.81555 22.55084 18.60989 0 0 -20.05461 12.50156 13.61011 0.2761604
2.840632 96.10012 20.59749 -0.5878634 5.393406 1.8271 6.903357 -36.4772 7.360299 -0 17.0646 -0 -5.434958 -6.602248 -1.315019 -6.817253 12.33926 -18.34341 -0 9.323258 -0 10.77247 -21.83226 21.50044 -4.013621 -1.204311 4.522257 4.486027 9.215825 -8.620166 1.581086 19.13577 7.380356 3.832196 -28.38329 10.10731 7.119658 -17.92157 11.76582 85.15518 38.38995 -20.74154 -0 0 12.78445 -7.044528 10.41232 5.702305 6.831076 -21.04332 -1.269853 -89.70185 22.29395 17.30819 0 0 -22.29156 13.0124 11.47929 -0.1618422
3.313813 94.90372 24.46377 -0.9379572 5.5885 2.466194 7.29206 -38.04643 6.716839 -0 15.80488 -0 -5.717943 -5.164539 -0.9584503 -6.635422 13.15851 -17.6368 -0 10.04576 -0 9.730428 -21.64499 20.21007 -3.567437 -0.6248811 4.131374 4.458395 9.140949 -8.490629 1.450251 19.03787 7.911599 4.07236 -28.58265 10.35625 6.618765 -17.57601 11.76887 86.175 38.3731 -21.22642 -0 0 11.62945 -7.107132 10.34494 5.89866 6.850273 -21.33261 -1.601165 -88.68438 22.33072 15.97927 0 0 -24.53168 12.80544 9.878319 -0.01024626
3.794265 93.73131 28.80106 -1.386198 5.407855 3.149336 7.557164 -38.27306 5.829366 -0 15.0555 -0 -6.239568 -3.906319 -0.6673193 -6.206507 14.02129 -16.72732 -0 11.57878 -0 7.513026 -21.10714 18.35041 -2.84764 -0.3634741 3.646309 4.318855 9.072572 -8.434612 1.232578 19.08728 8.34473 4.221883 -28.50463 10.3742 5.917807 -17.25476 11.76553 87.4213 37.53055 -21.95195 -0 0 10.48119 -7.652421 10.21329 6.094104 6.877976 -21.78853 -1.904018 -87.97685 22.38957 14.99023 0 0 -26.18765 12.15788 9.144875 0.4496591
